<?xml version="1.0" encoding="UTF-8" standalone="no" ?>
<!DOCTYPE svg PUBLIC "-//W3C//DTD SVG 1.1//EN" "http://www.w3.org/Graphics/SVG/1.1/DTD/svg11.dtd">
<svg xmlns="http://www.w3.org/2000/svg" xmlns:xlink="http://www.w3.org/1999/xlink" version="1.1" width="255" height="255" viewBox="0 0 255 255" xml:space="preserve">
<desc>Created with Fabric.js 5.3.0</desc>
<defs>
</defs>
<g transform="matrix(1.1249999776 0 0 1.1249999776 127.5 127.5)" id="X6p4pkJEOq--kAMKiME11"  >
<path style="stroke: rgb(238,61,180); stroke-width: 0; stroke-dasharray: none; stroke-linecap: butt; stroke-dashoffset: 0; stroke-linejoin: miter; stroke-miterlimit: 4; fill: rgb(20,20,20); fill-rule: nonzero; opacity: 1;" vector-effect="non-scaling-stroke"  transform=" translate(0.000005, 0.000005)" d="M -111.58975 -64.24623 C -111.58975 -90.39332999999999 -90.39332999999999 -111.58975 -64.24623 -111.58975 L 64.24622 -111.58975 L 64.24622 -111.58975 C 90.39331999999999 -111.58975 111.58973999999999 -90.39332999999999 111.58973999999999 -64.24623 L 111.58973999999999 64.24622 L 111.58973999999999 64.24622 C 111.58973999999999 90.39331999999999 90.39331999999999 111.58973999999999 64.24622 111.58973999999999 L -64.24623 111.58973999999999 L -64.24623 111.58973999999999 C -90.39332999999999 111.58973999999999 -111.58975 90.39331999999999 -111.58975 64.24622 z" stroke-linecap="round" />
</g>
<g transform="matrix(1 0 0 1 127.5 80.2051282051)" id="8lbouWty0DHR9BvajnfyO"  >
<path style="stroke: rgb(206,122,213); stroke-width: 0; stroke-dasharray: none; stroke-linecap: butt; stroke-dashoffset: 0; stroke-linejoin: miter; stroke-miterlimit: 4; fill: rgb(252,134,29); fill-rule: nonzero; opacity: 1;" vector-effect="non-scaling-stroke"  transform=" translate(-34.8718, -34.8718)" d="M 34.8718 0 C 54.121030000000005 0 69.7436 15.62257 69.7436 34.8718 C 69.7436 54.121030000000005 54.121030000000005 69.7436 34.8718 69.7436 C 15.62257 69.7436 0 54.121030000000005 0 34.8718 C 0 15.62257 15.62257 0 34.8718 0 z" stroke-linecap="round" />
</g>
<g transform="matrix(1 0 0 1 49.4487179487 80.2051274761)" id="uTB-mZu8lNDraiXJIk_4v"  >
<path style="stroke: rgb(206,122,213); stroke-width: 0; stroke-dasharray: none; stroke-linecap: butt; stroke-dashoffset: 0; stroke-linejoin: miter; stroke-miterlimit: 4; fill: rgb(252,134,29); fill-rule: nonzero; opacity: 1;" vector-effect="non-scaling-stroke"  transform=" translate(-34.8718, -34.8718)" d="M 34.8718 0 C 54.121030000000005 0 69.7436 15.62257 69.7436 34.8718 C 69.7436 54.121030000000005 54.121030000000005 69.7436 34.8718 69.7436 C 15.62257 69.7436 0 54.121030000000005 0 34.8718 C 0 15.62257 15.62257 0 34.8718 0 z" stroke-linecap="round" />
</g>
<g transform="matrix(1 0 0 1 205.0384615385 80.2051289341)" id="1r0QamDlJFnFVKMOnoCKp"  >
<path style="stroke: rgb(206,122,213); stroke-width: 0; stroke-dasharray: none; stroke-linecap: butt; stroke-dashoffset: 0; stroke-linejoin: miter; stroke-miterlimit: 4; fill: rgb(252,134,29); fill-rule: nonzero; opacity: 1;" vector-effect="non-scaling-stroke"  transform=" translate(-34.8718, -34.8718)" d="M 34.8718 0 C 54.121030000000005 0 69.7436 15.62257 69.7436 34.8718 C 69.7436 54.121030000000005 54.121030000000005 69.7436 34.8718 69.7436 C 15.62257 69.7436 0 54.121030000000005 0 34.8718 C 0 15.62257 15.62257 0 34.8718 0 z" stroke-linecap="round" />
</g>
<g transform="matrix(1 0 0 1 49.4487179487 172.1074358974)" id="LVnwDrQMa0pDCTGaL48yu"  >
<path style="stroke: rgb(206,122,213); stroke-width: 0; stroke-dasharray: none; stroke-linecap: butt; stroke-dashoffset: 0; stroke-linejoin: miter; stroke-miterlimit: 4; fill: rgb(252,134,29); fill-rule: nonzero; opacity: 1;" vector-effect="non-scaling-stroke"  transform=" translate(-34.8718, -34.8718)" d="M 34.8718 0 C 54.121030000000005 0 69.7436 15.62257 69.7436 34.8718 C 69.7436 54.121030000000005 54.121030000000005 69.7436 34.8718 69.7436 C 15.62257 69.7436 0 54.121030000000005 0 34.8718 C 0 15.62257 15.62257 0 34.8718 0 z" stroke-linecap="round" />
</g>
<g transform="matrix(2.1117645319 0 0 1 166.2692311337 172.1074358974)" id="3G8Ld51YwRhN98SXO-eBW"  >
<path style="stroke: rgb(206,122,213); stroke-width: 0; stroke-dasharray: none; stroke-linecap: butt; stroke-dashoffset: 0; stroke-linejoin: miter; stroke-miterlimit: 4; fill: rgb(247,47,58); fill-rule: nonzero; opacity: 1;" vector-effect="non-scaling-stroke"  transform=" translate(0, 0)" d="M 0 -34.8718 C 19.24923 -34.8718 34.8718 -19.24923 34.8718 0 C 34.8718 19.24923 19.24923 34.8718 0 34.8718 C -19.24923 34.8718 -34.8718 19.24923 -34.8718 0 C -34.8718 -19.24923 -19.24923 -34.8718 0 -34.8718 z" stroke-linecap="round" />
</g>
<g transform="matrix(1.1678593851 0 0 1.1678593851 214.5574945146 49.3182364751)" id="l2fnKw8je814jgWpb6qXt"  >
<g style="" vector-effect="non-scaling-stroke"   >
		<g transform="matrix(1 0 0 1 0 0)" id="uyF3PmsHxCVA_LNYnQ3te"  >
<path style="stroke: none; stroke-width: 1; stroke-dasharray: none; stroke-linecap: butt; stroke-dashoffset: 0; stroke-linejoin: miter; stroke-miterlimit: 4; fill: rgb(179,181,179); fill-rule: nonzero; opacity: 1;" vector-effect="non-scaling-stroke"  transform=" translate(-40.05, -40.05)" d="M 69.4 0 L 10.6 0 C 9 0 7.6 1.4 7.6 3.1 L 7.6 77 C 7.6 78.7 9 80.1 10.7 80.1 L 53.8 80.1 C 54.599999999999994 80.1 55.4 79.8 56 79.19999999999999 L 71.6 63.59999999999999 C 72.19999999999999 62.999999999999986 72.5 62.29999999999999 72.5 61.399999999999984 L 72.5 3.1 C 72.4 1.4 71 0 69.4 0 z" stroke-linecap="round" />
</g>
		<g transform="matrix(1 0 0 1 -0.05 -0.05)" id="B7aQZrs6lASB8F9Qkra__"  >
<path style="stroke: none; stroke-width: 1; stroke-dasharray: none; stroke-linecap: butt; stroke-dashoffset: 0; stroke-linejoin: miter; stroke-miterlimit: 4; fill: rgb(255,255,255); fill-rule: nonzero; opacity: 1;" vector-effect="non-scaling-stroke"  transform=" translate(-40, -40)" d="M 13.7 73.9 L 51.7 73.9 L 51.7 59.3 L 66.3 59.3 L 66.3 6.1 L 13.7 6.1 L 13.7 73.9 z" stroke-linecap="round" />
</g>
		<g transform="matrix(1 0 0 1 -0.1 -12)" id="f6-GBBrsb4VFoyBzl6pm7"  >
<path style="stroke: none; stroke-width: 1; stroke-dasharray: none; stroke-linecap: butt; stroke-dashoffset: 0; stroke-linejoin: miter; stroke-miterlimit: 4; fill: rgb(179,181,179); fill-rule: nonzero; opacity: 1;" vector-effect="non-scaling-stroke"  transform=" translate(-39.95, -28.05)" d="M 21.7 17.9 C 21.7 16.799999999999997 22.599999999999998 15.899999999999999 23.7 15.899999999999999 L 56.2 15.899999999999999 C 57.300000000000004 15.899999999999999 58.2 16.799999999999997 58.2 17.9 C 58.2 19 57.300000000000004 19.9 56.2 19.9 L 23.7 19.9 C 22.6 19.9 21.7 19 21.7 17.9 z M 23.7 30.1 L 56.2 30.1 C 57.300000000000004 30.1 58.2 29.200000000000003 58.2 28.1 C 58.2 27 57.300000000000004 26.1 56.2 26.1 L 23.7 26.1 C 22.599999999999998 26.1 21.7 27 21.7 28.1 C 21.7 29.200000000000003 22.6 30.1 23.7 30.1 z M 23.7 40.2 L 56.2 40.2 C 57.300000000000004 40.2 58.2 39.300000000000004 58.2 38.2 C 58.2 37.1 57.300000000000004 36.2 56.2 36.2 L 23.7 36.2 C 22.599999999999998 36.2 21.7 37.1 21.7 38.2 C 21.7 39.300000000000004 22.6 40.2 23.7 40.2 z" stroke-linecap="round" />
</g>
</g>
</g>
</svg>